<?xml version="1.0" encoding="utf-8"?>
<!-- Generator: Adobe Illustrator 23.0.1, SVG Export Plug-In . SVG Version: 6.00 Build 0)  -->
<svg version="1.1" id="Layer_1" 
	xmlns="http://www.w3.org/2000/svg" x="0px" y="0px" viewBox="0 0 20 19" style="enable-background:new 0 0 20 19;" xml:space="preserve">
	<polygon fill="#FFF" points="10,18 1,9 0.4,5.2 1.8,2.4 4.1,1 5.8,0.6 8.4,1.7 10,2.6 12.1,1 15,0.6 17.7,2 19.3,4.8 19,8.4 "/>
	<path d="M9.7,1.5C8.6,0.6,7.3,0,5.8,0C2.6,0,0,2.7,0,6c0,1.7,0.6,3.2,1.7,4.3L10,19l8.3-8.6C19.4,9.3,20,7.7,20,6
	c0-3.3-2.6-6-5.8-6c-1.5,0-2.8,0.6-3.8,1.5c-0.1,0.1-0.2,0.2-0.3,0.3l0,0l0,0l0,0l0,0C9.9,1.7,9.8,1.6,9.7,1.5z M10,3.2L10,3.2
	l0.8-0.7C11.6,1.6,12.8,1,14.2,1C16.8,1,19,3.2,19,6c0,1.4-0.5,2.7-1.4,3.6L10,17.6L2.4,9.7l0,0C1.5,8.8,1,7.5,1,6
	c0-2.8,2.2-5,4.8-5c1.3,0,2.5,0.6,3.4,1.5L10,3.2L10,3.2z"/>
</svg>
