<?xml version="1.0" encoding="utf-8"?>
<!-- Generator: Adobe Illustrator 23.0.1, SVG Export Plug-In . SVG Version: 6.00 Build 0)  -->
<svg version="1.1" id="Layer_1" 
	xmlns="http://www.w3.org/2000/svg" x="0px" y="0px" viewBox="0 0 66.4 59.3" style="enable-background:new 0 0 66.4 59.3;" xml:space="preserve">
	<rect x="2.5" y="24.7" fill="#999" width="19.1" height="6.1"/>
	<rect x="2.1" y="21.6" fill="#999" width="10" height="6.1"/>
	<polyline fill="#F26739" points="34.1,40.3 31.3,30.4 36.3,22.5 53.7,15.8 54.2,29.1 45.8,39.9 "/>
	<polyline fill="#FFF" points="28,37.8 22.4,26.9 26.9,14.9 38.8,3.4 46.8,2.1 52,4.3 59.1,3.7 55.3,9.8 61.5,13.1 55,15.8 40.1,20 
		31.8,29.6 32.7,39.9 	"/>
	<path d="M38.7,43.2c-9.8,0-17.7-8-17.7-17.7c0-4.6,3.3-10.8,8.7-16.4C35.2,3.4,41.2,0,45.8,0c10.7,0,10.7,16.6,10.7,25.5
		C56.4,35.2,48.4,43.2,38.7,43.2z M45.7,3.4c-7.8,0-21.3,14-21.3,22c0,7.9,6.4,14.2,14.2,14.2s14.2-6.4,14.2-14.2
		C52.9,17.7,52.9,3.4,45.7,3.4z"/>
	<path d="M54,11.6c-0.5,0-1-0.2-1.3-0.6c-0.6-0.7-0.6-1.8,0.2-2.5L55.7,6l-3.4,0.7c-0.9,0.2-1.9-0.4-2.1-1.4
		c-0.2-0.9,0.4-1.9,1.4-2.1l9.8-2C62.2,1,63,1.4,63.3,2.1c0.4,0.7,0.2,1.6-0.4,2.1L55.2,11C54.8,11.5,54.4,11.6,54,11.6z"/>
	<path d="M54.7,17.5c-0.8,0-1.6-0.6-1.7-1.5c-0.2-1,0.5-1.9,1.4-2l3.6-0.6L54,12c-0.9-0.3-1.4-1.3-1.1-2.2c0.3-0.9,1.3-1.4,2.2-1.1
		l10.2,3.7c0.7,0.3,1.2,1,1.1,1.8s-0.7,1.4-1.4,1.6l-10.1,1.7C54.9,17.5,54.8,17.5,54.7,17.5z"/>
	<circle cx="42.8" cy="7.9" r="1.9"/>
	<path d="M34.1,42.6c-0.6,0-1.2-0.3-1.5-0.9c-0.3-0.4-6.5-10.9,0.3-18.1s20.9-9.5,21.5-9.6c1-0.2,1.9,0.5,2,1.5c0.2,1-0.5,1.9-1.5,2
		c-0.1,0-13.5,2.2-19.5,8.6c-5,5.3,0,13.8,0.1,13.9c0.5,0.8,0.2,1.9-0.6,2.4C34.7,42.5,34.4,42.6,34.1,42.6z"/>
	<path d="M3.6,32.9c-0.4,0-0.8-0.2-1.2-0.4c-0.2-0.2-2.2-2.1-2.4-5.9s2.7-7.2,2.8-7.4c0.5-0.5,1.2-0.7,1.9-0.5l18.2,5.9
		c0.9,0.3,1.4,1.3,1.1,2.2c-0.3,0.9-1.3,1.4-2.2,1.1l-17-5.6c-0.7,1-1.4,2.6-1.3,4c0.1,1.5,0.6,2.4,0.9,3l18.3-0.9
		c1-0.1,1.8,0.7,1.8,1.7s-0.7,1.8-1.7,1.8L3.6,32.9C3.7,32.9,3.6,32.9,3.6,32.9z"/>
	<path d="M43,59.3c-0.6,0-1.3-0.4-1.6-1l-7.8-15.9c-0.4-0.9-0.1-1.9,0.8-2.3c0.9-0.4,1.9-0.1,2.3,0.8l7.8,15.9
		c0.4,0.9,0.1,1.9-0.8,2.3C43.5,59.2,43.2,59.3,43,59.3z"/>
	<path d="M54.3,59.3c-0.6,0-1.3-0.4-1.6-1l-8.6-17.5c-0.4-0.9-0.1-1.9,0.8-2.3c0.9-0.4,1.9-0.1,2.3,0.8l8.6,17.5
		c0.4,0.9,0.1,1.9-0.8,2.3C54.8,59.2,54.5,59.3,54.3,59.3z"/>
</svg>
