<svg xmlns="http://www.w3.org/2000/svg" viewBox="0 0 277.25 33.12">
    <title>grumpycorp-text</title>
    <path d="M21.12,27.31H17A2.14,2.14,0,1,1,17,23h6.76a2,2,0,0,1,2,2.06V35.18a3.72,3.72,0,0,1-2.21,3.65A15.77,15.77,0,0,1,16,40.56c-9.41,0-13.34-7.1-13.34-16.47C2.69,15,6.43,7.44,15.79,7.44a16.21,16.21,0,0,1,8,2,2.61,2.61,0,0,1,1.39,2.11,2.08,2.08,0,0,1-2.06,2.21,6.35,6.35,0,0,1-2.3-.81,9.91,9.91,0,0,0-4.71-1.15c-6.67,0-8.59,5.85-8.59,12.28,0,6.92,2.25,12.15,8.69,12.15A10.57,10.57,0,0,0,21.12,35Z" transform="translate(-2.69 -7.44)"/>
    <path d="M37.44,38A2.45,2.45,0,0,1,35,40.37a2.41,2.41,0,0,1-2.4-2.4V10.32A2.41,2.41,0,0,1,35,7.92h7.73C48.48,7.92,53.23,12,53.23,18a9,9,0,0,1-5.37,8.4l5.66,10.08a3.5,3.5,0,0,1,.58,1.58,2.3,2.3,0,0,1-2.4,2.31,2.55,2.55,0,0,1-2.12-1.3L43.39,27.6c-.72,0-1.39.09-2.16.09H37.44Zm0-14.07h5a5.66,5.66,0,0,0,6-5.9,5.64,5.64,0,0,0-6-5.81h-5Z" transform="translate(-2.69 -7.44)"/>
    <path d="M59.86,10a2.4,2.4,0,0,1,2.4-2.4,2.44,2.44,0,0,1,2.4,2.4V29.09c0,4.12,2.06,7.15,6.24,7.15s6.24-3,6.24-7.15V10a2.43,2.43,0,0,1,2.4-2.4,2.41,2.41,0,0,1,2.4,2.4V29c0,6.29-3.65,11.57-11,11.57s-11-5.28-11-11.57Z" transform="translate(-2.69 -7.44)"/>
    <path d="M89.66,10.13a2.5,2.5,0,0,1,2.45-2.5A2.76,2.76,0,0,1,94.8,9.26l7.87,15.51h.1l7.92-15.51a2.73,2.73,0,0,1,2.64-1.63,2.47,2.47,0,0,1,2.45,2.5V38a2.4,2.4,0,0,1-4.8,0V18h-.24L105.5,28.37a3,3,0,0,1-2.78,1.82,3,3,0,0,1-2.78-1.82L94.7,18h-.19V38a2.45,2.45,0,0,1-2.45,2.4,2.41,2.41,0,0,1-2.4-2.4Z" transform="translate(-2.69 -7.44)"/>
    <path d="M123.65,10.32a2.4,2.4,0,0,1,2.4-2.4h7.15c6.38,0,11.43,4,11.43,10.75,0,6.29-5,10.7-11.43,10.7h-4.7V38a2.46,2.46,0,0,1-2.45,2.4,2.41,2.41,0,0,1-2.4-2.4Zm9.5,14.78c3.84,0,6.63-2.54,6.63-6.43,0-4.32-2.79-6.48-6.63-6.48H128.5V25.1Z" transform="translate(-2.69 -7.44)"/>
    <path d="M155.66,28.08l-8.54-16.95a2.49,2.49,0,0,1-.29-1.15,2.39,2.39,0,0,1,2.5-2.35,2.6,2.6,0,0,1,2.25,1.58l6.58,14.21,6.53-14.21a2.3,2.3,0,0,1,2.11-1.58A2.38,2.38,0,0,1,169.25,10a2.49,2.49,0,0,1-.29,1.15l-8.5,16.95V38a2.44,2.44,0,0,1-2.4,2.4,2.41,2.41,0,0,1-2.4-2.4Z" transform="translate(-2.69 -7.44)"/>
    <path d="M185.28,11.81c-6.14,0-8.16,5.61-8.16,12.38,0,7,2.16,12.05,8.54,12.05a11.67,11.67,0,0,0,5-1.2,6.75,6.75,0,0,1,2.36-.77,2,2,0,0,1,2,2.11,2.62,2.62,0,0,1-1.34,2.12,18.41,18.41,0,0,1-8.45,2.06c-9,0-13-7.06-13-16.47,0-9,3.65-16.65,12.82-16.65a17.2,17.2,0,0,1,6.76,1.39,4.59,4.59,0,0,1,3,4.18l.14,2c.2,1.92-.86,2.69-2.06,2.69a2.29,2.29,0,0,1-2.3-2.16l-.34-2.45A10.25,10.25,0,0,0,185.28,11.81Z" transform="translate(-2.69 -7.44)"/>
    <path d="M199.63,24.05c0-9,3.5-16.61,12.58-16.61s12.53,7.63,12.53,16.61c0,9.16-3.6,16.51-12.53,16.51S199.63,33.21,199.63,24.05Zm20.31,0c0-6.1-1.73-12.24-7.73-12.24s-7.78,6.14-7.78,12.24c0,6.72,2.06,12.19,7.78,12.19S219.94,30.77,219.94,24.05Z" transform="translate(-2.69 -7.44)"/>
    <path d="M236.25,38a2.45,2.45,0,0,1-2.44,2.4,2.41,2.41,0,0,1-2.4-2.4V10.32a2.4,2.4,0,0,1,2.4-2.4h7.72c5.76,0,10.52,4.08,10.52,10.08a9,9,0,0,1-5.38,8.4l5.66,10.08a3.5,3.5,0,0,1,.58,1.58,2.29,2.29,0,0,1-2.4,2.31,2.52,2.52,0,0,1-2.11-1.3L242.21,27.6c-.72,0-1.4.09-2.16.09h-3.8Zm0-14.07h5a5.67,5.67,0,0,0,6-5.9,5.65,5.65,0,0,0-6-5.81h-5Z" transform="translate(-2.69 -7.44)"/>
    <path d="M259,10.32a2.4,2.4,0,0,1,2.4-2.4h7.15c6.38,0,11.42,4,11.42,10.75,0,6.29-5,10.7-11.42,10.7h-4.7V38a2.46,2.46,0,0,1-2.45,2.4A2.41,2.41,0,0,1,259,38Zm9.5,14.78c3.84,0,6.63-2.54,6.63-6.43,0-4.32-2.79-6.48-6.63-6.48h-4.65V25.1Z" transform="translate(-2.69 -7.44)"/>
</svg>