<svg version="1" xmlns="http://www.w3.org/2000/svg" width="1408" height="1408" viewBox="0 0 1056.000000 1056.000000"><path d="M712.8 57.5c-.1.1-2.5.6-5.3.9-9.9 1.3-26.2 4.8-30.9 6.5-1.4.6-2.6.8-2.6.5 0-.4-.7-.1-1.5.6s-1.5 1-1.5.8c0-.3-3 .6-6.7 1.9-3.8 1.3-9.5 3.4-12.8 4.5-3.3 1.2-6.1 2.5-6.3 3-.2.4-1 .8-1.7.8s-4.8 1.7-9.2 3.7c-4.3 2.1-8.1 3.7-8.5 3.8-.3 0-1 .4-1.5.8-.9 1-7 3.6-8 3.6-.3-.1-.9.4-1.2.9-.3.5-2.2 1.7-4.1 2.7-1.9 1-7.7 4.3-12.9 7.4-5.1 3.1-10.9 6.5-12.7 7.6-3.8 2.3-26.1 17.5-27.8 19-.6.5-3.8 3-7.1 5.4-3.3 2.5-6.1 4.8-6.3 5.3-.2.4-1 .8-1.7.8s-1.5.3-1.7.8c-.1.4-2.5 2.5-5.3 4.7-2.7 2.2-5.2 4.2-5.5 4.5-.3.3-3.4 3-7 6-24.7 20.9-59.7 55.8-79 79-2.5 3-5.4 6.3-6.5 7.5-1.1 1.2-3.3 3.9-5 6-1.6 2.2-3.6 4.7-4.5 5.6-1.8 2-4.3 5.2-13.2 17.3-3.7 5-7.2 9.6-7.7 10.3-.6.7-1.1 1.6-1.1 2.2 0 .5-.3 1.1-.8 1.3-.8.3-12 17-20.2 30.1-1.7 2.6-3 5.2-3 5.7 0 .6-.4 1-.8 1s-1.3 1.2-1.9 2.7c-1.2 2.7-4.9 9.5-9.8 17.9-1.3 2.3-2.1 4.4-1.8 4.8.3.3.1.6-.5.6-.7 0-1.2.4-1.2.9s-2.3 5.8-5.1 11.7c-5.4 11.6-7 15.2-8.4 19.4-.1.3-.7 1.8-1.4 3.5-2.3 5.4-9.7 28.7-10.8 33.5-4.1 19.7-5.1 23.5-6.4 23.1-.8-.2-2.1-.5-2.9-.6-.8-.2-1.5-.4-1.5-.5 0-.1-.7-.3-1.5-.5s-6.9-2.2-13.5-4.4c-6.6-2.3-12.2-4.2-12.5-4.2-.3-.1-1.6-.6-3-1.1-1.4-.6-3.5-1.1-4.7-1.1-1.3-.1-2.3-.5-2.3-.9 0-.5-.3-.7-.7-.6-.5 0-1.5-.1-2.3-.5-.8-.3-3.3-1.1-5.5-1.7-2.2-.6-4.9-1.5-6-2-2.2-1-18.4-6.1-20-6.4-.5-.1-2.3-.7-4-1.3-1.6-.6-6.8-2.3-11.5-3.8-4.7-1.4-9.2-2.9-10-3.2-.8-.3-1.9-.7-2.5-.9-2.4-.5-36.2-11.6-38.3-12.4-1.3-.6-3.2-1-4.2-1-1.1 0-2-.5-2-1.1 0-.5-.4-.8-.9-.4-.5.3-1.2.1-1.6-.5-.4-.6-1-.8-1.5-.5-.5.3-1.7.1-2.7-.4-1.8-1-25-8.7-28.7-9.6-2.8-.6-17.7-5.5-20.1-6.5-1.1-.5-5.4-1.8-9.5-3s-8.4-2.6-9.5-3c-1.1-.5-8.5-2.9-16.5-5.5-8-2.5-15.2-4.9-16-5.2-4.8-2.1-15.6-2.3-20.8-.5-7.8 2.6-12.2 6-15.8 12.2-1 1.6-2.2 3-2.6 3-.4 0-.8.4-.8 1 0 .5-.8 1.9-1.8 3-2.6 3-13 20-14.8 24.2-.9 2.1-2.1 3.8-2.7 3.8-.6 0-.7.3-.4.6.4.4 0 1.9-.8 3.3-3.4 6.2-10.1 22.6-11.1 27.3-.7 3-1 4-1.7 5.8-.4.8-1.5 6-2.6 11.5C.5 458.8.2 463.3.6 477c.5 17 .7 19.7 1.8 24 .3 1.4.8 3.8 1.1 5.5.3 1.6.8 4.1 1.1 5.4.3 1.3.6 2.9.7 3.5.1.6.5 1.3.9 1.6.4.3.8 1.7 1 3.2.2 1.5.7 3 1.1 3.4.4.4.7 1.4.7 2.2 0 .8 1.3 4.2 2.8 7.6 1.6 3.4 3.5 7.6 4.3 9.3.8 1.8 1.7 3.3 2.1 3.3.5 0 .8.7.8 1.5 0 .9.5 2.1 1 2.8.6.7 2.5 3.4 4.3 6.2 3.5 5.5 4.4 6.7 10.2 13.2 3.6 4.1 6.6 6.1 10.4 6.9.8.1 1.8.9 2.2 1.6 1.2 1.9 23.9 1.6 60.9-.8 4.1-.2 12.9-.6 19.5-.9 6.6-.2 12-.5 12-.5 0-.1 9.1-.6 23-1.3 3.3-.1 6.6-.6 7.3-1 .7-.5 1.2-.3 1.2.3s.8.9 1.8.6c1.7-.5 11.5-1.2 30.7-2.1 11.4-.5 27.7-1.4 38-2 20.5-1.2 34.9-1.8 42.7-1.9 4.9-.1 8.8-.3 8.8-.6s1.7-.5 3.8-.6c2 0 10.2-.4 18.2-.8s19.2-.9 24.9-1.1c5.8-.3 10.7-.7 10.9-1 .8-.8 4.2 2.6 4.2 4.2 0 .7.4 2.1.9 3.1.5.9 4 7.9 7.6 15.4 3.7 7.5 8.2 16 10.1 18.8 1.9 2.9 3.4 5.4 3.4 5.6 0 .5 7.5 11.8 9.2 13.9.5.5 3.4 4.4 6.6 8.5 3.1 4.2 6.3 8.2 7 9 .7.8 2.4 2.8 3.8 4.5 8.3 9.5 23.2 24 32.4 31.5 3 2.5 6 4.9 6.6 5.5.6.5 2.2 1.7 3.4 2.5 1.2.8 2.8 2 3.4 2.6 2.4 2.2 21.5 14.4 30.1 19.1 11.8 6.5 22.5 11.5 36 16.8 18.1 7.1 20.2 8.2 21.9 11.7.9 1.7 1.6 3.7 1.6 4.5 0 .7.4 1.3.9 1.3s1.3 1 1.7 2.2c1.1 3.6 11.8 25.3 12.7 25.6.4.2.7.9.7 1.5 0 .7 4.6 10.4 10.2 21.7 5.6 11.3 10.2 20.7 10.3 21 0 .3 2.4 5.2 5.3 10.9s5.2 10.9 5.2 11.6c0 .7.4 1.5.8 1.7.8.3 8.3 15.4 8.1 16.4 0 .4.3 1 .8 1.3 1.1.8 4.7 8.4 4.5 9.3-.1.5.3.8 1 .8.6 0 .8.3.5.7-.4.3-.1 1.3.5 2.1.7.8 1.3 2.1 1.5 3 .1.9.7 1.8 1.2 2 .6.2 1.1.9 1.1 1.4 0 .6 5.6 12.6 12.5 26.5 6.9 14 12.5 25.8 12.5 26.4 0 .5.5.9 1 .9.6 0 1 .6 1 1.2 0 .7 2.3 5.8 5 11.2 2.8 5.4 5 10.5 5 11.2 0 .7.4 1.4.8 1.6.7.3 8.3 15.6 8.3 16.8 0 .3.8 1.3 1.7 2.4.9 1 1.6 1.9 1.4 2-.9.4 4.2 9.8 6.7 12.5 1.6 1.7 2.6 3.1 2.3 3.1-.4 0 .4.7 1.8 1.5 14.4 8.4 23.5 8.1 35.7-1.1 4-3 8.3-11.8 8.7-17.5.4-6.8-1.4-12.1-9.9-29.4-4.4-8.8-7.8-16.3-7.7-16.8.1-.4-.2-.7-.8-.7-.6 0-.9-.3-.8-.7.1-.5-7-15.2-15.6-32.8-34.7-70.3-42-85-42.1-85.5 0-.3-3.8-7.9-8.3-17-4.5-9.1-8.2-17-8.2-17.7 0-.6-.3-1.3-.7-1.5-.5-.2-2.4-3.7-4.3-7.8s-4.1-8.3-4.9-9.3c-.8-.9-1.2-1.7-.8-1.7.3 0-.6-2.1-1.9-4.6-1.4-2.6-2.3-4.9-2-5.1.2-.3 8.9-.6 19.3-.9 10.3-.2 20.4-.6 22.3-.9 1.9-.2 5.5-.7 8-1 5.3-.6 8.6-1.1 12-1.9 1.3-.3 4.2-.8 6.5-1.2 4.6-.7 7-1.2 7-1.4 0-.1 1.1-.4 2.5-.7 1.4-.2 3-.6 3.5-.7.6-.2 2.4-.6 4-1 2.9-.8 13.5-4.2 16.5-5.3.8-.3 2-.7 2.6-.8.6-.2 2-.6 3.1-.9 2.1-.7.9-3 27.5 51.1 7.1 14.5 12.9 26.6 12.9 27 .1.5.6 1.4 1.1 2.1 1.2 1.4 8.6 16.6 9.5 19.4.3 1 .9 1.8 1.4 1.8.5 0 .9.5.9 1.1 0 .7 4.1 9.4 9 19.5 5 10 9 18.7 9 19.2 0 .6.3 1.2.8 1.4.4.2 2.7 4.6 5.2 9.8 2.5 5.2 4.8 9.6 5.3 9.8.4.2.7.9.7 1.5s5 11.1 11 23.4c6.1 12.2 11 22.7 11 23.3 0 .5.4 1 .8 1 .5 0 1.5 1.8 2.2 4 .7 2.2 1.7 4 2.2 4 .4 0 .7.3.6.7-.5 2 18.7 39.1 22.1 42.6 8.7 9.3 21.5 11.8 31.9 6.4 10.4-5.4 14.7-12.2 14.7-23.2 0-9-.1-9.1-6.7-22.6-14.2-28.9-53.1-108.1-81-164.9-26.3-53.4-28.8-58.6-28.8-59.7 0-.6-.4-1.3-.8-1.5-.6-.2-4.3-7.3-11-21-.2-.3 3.7-3.2 8.5-6.4s9.3-6.5 10-7.4c.7-.8 1.3-1.1 1.3-.7 0 .5.6.2 1.3-.5.8-.7 2.6-2.2 4.1-3.3 1.6-1.1 3.3-2.5 4-3.1.6-.5 4.3-3.7 8.1-6.9 3.9-3.2 11.7-10.7 17.5-16.6 9.4-9.6 13-13.5 18.7-20.6 1-1.2 2.5-3 3.3-4 2.9-3.5 12-16.3 12-16.8 0-.3.9-1.5 2-2.7 1.1-1.2 2-2.8 2-3.5 0-.7.4-1.3.8-1.3.5 0 2.1-2.4 3.6-5.3 1.5-2.8 3.5-6.6 4.5-8.2 2.8-4.9 7.8-14.7 9.7-19.3 1-2.3 2.2-4.2 2.7-4.2.4 0 .6-.4.3-.8-.3-.5.1-2 .8-3.3 1.6-3.1 10-26.7 11.2-31.4 2.1-8.1 4.6-18.4 5-20 1-5.3 1.4-7.2 1.8-10 .3-1.7.7-4.4 1-6 .9-5.9 1.6-11.1 2.2-18.5 1.1-11.2 1-83 0-83-.5 0-.4-.6.1-1.3.6-.6.9-2.1.7-3.2-.3-1.1-.7-10.3-1-20.5-.7-21.1-1.1-32.5-1.4-32.5-.1 0-.2-2.4-.4-5.4-.2-5.7-.2-5.8 5.9-6.5 2.2-.3 4-.5 4-.6 0-.3 8.3-1.8 14.4-2.6 1.9-.2 5.4-.9 7.9-1.5 2.4-.5 4.7-.7 5-.5.2.3 1.2.1 2.1-.3.9-.5 3.9-1.1 6.6-1.5 2.8-.3 6.1-.8 7.5-1.1 1.4-.3 4.1-.8 6-1.1 1.9-.3 4.6-.7 6-1 5.8-1 7.9-1.3 15-2.4 4.1-.7 8.5-1.6 9.8-2.1 1.7-.7 2.1-.6 1.6.2-.4.7-.3.9.4.6 1.1-.8 13.7-3.2 26.7-5.2 1.1-.2 3.4-.6 5-.9 1.7-.4 4.8-.9 7-1.1 10-1.3 14.3-3.3 21-10.1 3.2-3.2 5.7-6.8 6.8-10.1 2.1-5.9 2.1-14.3 0-18.6-.7-1.5-1.1-2.7-.8-2.7.6 0 .3-.4-4.6-6.3-3.3-4-13.9-9.6-21.9-11.7-2.5-.7-4.9-1.5-5.5-1.8-.5-.4-1.2-.7-1.5-.8-.3 0-1.8-.6-3.3-1.2-1.6-.7-3.3-1.2-3.8-1.2s-1.7-.4-2.7-.9c-1.7-1-4.9-2.2-6.7-2.7-1.5-.3-23.7-8.4-26-9.4-1.1-.5-3.8-1.4-6-2.1-2.2-.7-4.4-1.7-4.9-2.1-.6-.4-1.6-.8-2.2-.8-.7 0-2.5-.5-4.1-1.2-1.5-.6-3.2-1.2-3.8-1.4-.5-.1-4.8-1.7-9.5-3.4-13.8-5.1-30.3-11.1-33.1-12-1.4-.4-3.6-1.3-4.8-2l-2.2-1.1 2.7-2.1c2.6-2.1 9.3-8 14.6-12.9 1.5-1.5 4.7-4.2 6.9-6 2.3-1.9 5.6-4.8 7.3-6.4 1.8-1.7 6.3-5.7 10.1-9s7.9-6.9 9.1-8c1.2-1.2 4.1-3.6 6.4-5.5 2.2-1.9 5.8-5.1 7.8-7 3.8-3.5 5.2-4.7 18.6-16.5 16.7-14.6 19.7-19.3 19.2-30.4-.1-3.8-1-8-1.9-9.8-1-1.8-1.7-3.5-1.7-3.8.1-1.8-7.1-8.4-11-10.1-1.9-.9-4.2-1.9-5-2.3-2.1-1.1-12.6-.6-17.5.7-2.2.6-5.3 1.3-7 1.6-1.6.2-5.5 1-8.5 1.6-3 .6-6.5 1.3-7.7 1.6-1.3.2-3.5.7-5 1-1.6.3-3.7.7-4.9.8-1.1.1-2.6.6-3.3 1-.7.4-1.5.5-1.8.2-.3-.3-1.3-.1-2.2.3-.9.5-3.8 1.2-6.5 1.5-2.7.4-5.3.9-5.8 1.2-.5.3-2.3.7-4.1 1-1.8.2-4.2.6-5.4.9-5.2 1.1-14.7 3.1-19.3 4-7.5 1.4-20.8 4.2-24.2 5.1-1.3.3-3.6.7-5.3.9-1.6.2-6.4 1.1-10.5 2-4.1 1-8.4 1.9-9.5 2.1-4.7.8-7.9 1.5-8.7 2-.4.3-2.4-1.2-4.4-3.3-9.2-9.9-12.4-13-18.4-17.7-9.3-7.4-13.1-9.8-22.5-14.4-11.5-5.6-23.8-9.6-33-10.8-2.2-.3-5.3-.8-7-1.3-2.9-.7-33.9-1.3-34.7-.6z"/></svg>